<?xml version="1.0" standalone="no"?><!DOCTYPE svg PUBLIC "-//W3C//DTD SVG 1.1//EN" "http://www.w3.org/Graphics/SVG/1.1/DTD/svg11.dtd"><svg t="1610417319875" class="icon" viewBox="0 0 1024 1024" version="1.1" xmlns="http://www.w3.org/2000/svg" p-id="4153" xmlns:xlink="http://www.w3.org/1999/xlink" width="200" height="200"><defs><style type="text/css"></style></defs><path d="M991.968 475.664h-72.528l36.272-62.816a32.064 32.064 0 0 0-11.744-43.744 31.952 31.952 0 0 0-43.68 11.744l-54.752 94.816h-56.464l-110.848-192 28.192-48.816h109.568a32 32 0 0 0 0-64H743.36l36.304-62.88a31.984 31.984 0 1 0-55.392-32l-36.256 62.816-36.288-62.816a32.016 32.016 0 0 0-55.44 32l54.752 94.816-28.224 48.88H401.104l-28.192-48.816 54.784-94.88a31.984 31.984 0 1 0-55.408-31.968l-36.304 62.88-36.32-62.912a32 32 0 0 0-55.408 32l36.288 62.816h-72.56c-17.696 0.064-32 14.368-32 32.064 0 17.664 14.304 31.936 32 31.936h109.504l28.224 48.88-110.848 192h-56.4l-54.752-94.848a31.984 31.984 0 1 0-55.408 32l36.288 62.848H32c-17.696 0-32 14.32-32 32 0 17.696 14.32 32 32 32h72.528l-36.288 62.848a31.984 31.984 0 1 0 55.424 32l54.752-94.848h56.432l110.848 192-28.192 48.816h-109.536a32 32 0 0 0-32 32.032c0 17.68 14.304 32.032 32 31.968h72.592l-36.32 62.88a31.968 31.968 0 0 0 11.728 43.712c15.312 8.848 34.88 3.6 43.68-11.712l36.288-62.848 36.288 62.88a32.048 32.048 0 0 0 43.744 11.68 31.968 31.968 0 0 0 11.68-43.68l-54.784-94.88 28.224-48.848h221.712l28.192 48.816-54.784 94.88a32.016 32.016 0 0 0 55.424 32l36.32-62.88 36.272 62.88a31.984 31.984 0 1 0 55.392-32l-36.256-62.816h72.56c17.68-0.064 32-14.352 32-32.032a31.968 31.968 0 0 0-32-31.968h-109.536l-28.224-48.848 110.848-192.032h56.4l54.752 94.88a32.016 32.016 0 0 0 55.424-32l-36.304-62.88h72.624c17.68 0 32-14.304 32-32 0.064-17.696-14.24-32-31.936-32z m-276.784 0h-147.808l73.904-128.032 73.904 128.032z m-129.312-160l-73.904 128.032-73.936-128.032h147.84z m-203.216 32.032l73.872 127.968h-147.776l73.904-127.968z m-73.904 191.968h147.776l-73.872 127.968-73.904-127.968z m129.28 160l73.936-128.032 73.904 128.032h-147.84z m203.248-32l-73.904-128h147.808l-73.904 128z" fill="#469FCC" p-id="4154"></path></svg>